<mxfile host="app.diagrams.net" modified="2022-11-12T16:09:33.431Z" agent="5.0 (Windows NT 10.0; Win64; x64) AppleWebKit/537.36 (KHTML, like Gecko) Chrome/106.0.0.0 Safari/537.36" etag="_pv4xt_uPKCaJI9eWIWS" version="20.5.3" type="github">
  <diagram name="Page-1" id="58cdce13-f638-feb5-8d6f-7d28b1aa9fa0">
    <mxGraphModel dx="1858" dy="1442" grid="1" gridSize="10" guides="1" tooltips="1" connect="1" arrows="1" fold="1" page="1" pageScale="1" pageWidth="1100" pageHeight="850" background="none" math="0" shadow="0">
      <root>
        <mxCell id="0" />
        <mxCell id="1" parent="0" />
        <mxCell id="BiViNPcqUaIFcpwJiyQU-46" style="edgeStyle=orthogonalEdgeStyle;rounded=0;orthogonalLoop=1;jettySize=auto;html=1;entryX=0.5;entryY=0;entryDx=0;entryDy=0;strokeColor=#000000;" edge="1" parent="1" source="382b91b5511bd0f7-1" target="BiViNPcqUaIFcpwJiyQU-37">
          <mxGeometry relative="1" as="geometry" />
        </mxCell>
        <mxCell id="382b91b5511bd0f7-1" value="" style="ellipse;html=1;shape=startState;fillColor=#000000;strokeColor=#ff0000;rounded=1;shadow=0;comic=0;labelBackgroundColor=none;fontFamily=Verdana;fontSize=12;fontColor=#000000;align=center;direction=south;" parent="1" vertex="1">
          <mxGeometry x="65" y="20" width="30" height="30" as="geometry" />
        </mxCell>
        <mxCell id="BiViNPcqUaIFcpwJiyQU-4" value="" style="edgeStyle=orthogonalEdgeStyle;rounded=0;orthogonalLoop=1;jettySize=auto;html=1;entryX=0.494;entryY=0.944;entryDx=0;entryDy=0;exitX=1;exitY=0.5;exitDx=0;exitDy=0;entryPerimeter=0;" edge="1" parent="1" source="BiViNPcqUaIFcpwJiyQU-20">
          <mxGeometry relative="1" as="geometry">
            <mxPoint x="779.52" y="620.52" as="targetPoint" />
          </mxGeometry>
        </mxCell>
        <mxCell id="BiViNPcqUaIFcpwJiyQU-21" value="" style="edgeStyle=orthogonalEdgeStyle;rounded=0;orthogonalLoop=1;jettySize=auto;html=1;" edge="1" parent="1" source="382b91b5511bd0f7-5" target="BiViNPcqUaIFcpwJiyQU-20">
          <mxGeometry relative="1" as="geometry" />
        </mxCell>
        <mxCell id="BiViNPcqUaIFcpwJiyQU-25" value="" style="edgeStyle=orthogonalEdgeStyle;rounded=0;orthogonalLoop=1;jettySize=auto;html=1;" edge="1" parent="1" source="382b91b5511bd0f7-5">
          <mxGeometry relative="1" as="geometry">
            <mxPoint x="740" y="585" as="targetPoint" />
          </mxGeometry>
        </mxCell>
        <mxCell id="382b91b5511bd0f7-5" value="Kontrola" style="rounded=1;whiteSpace=wrap;html=1;arcSize=24;fillColor=#ffffc0;strokeColor=#ff0000;shadow=0;comic=0;labelBackgroundColor=none;fontFamily=Verdana;fontSize=12;fontColor=#000000;align=center;" parent="1" vertex="1">
          <mxGeometry x="590" y="555" width="90" height="60" as="geometry" />
        </mxCell>
        <mxCell id="382b91b5511bd0f7-6" value="Vlož na zásobník" style="rounded=1;whiteSpace=wrap;html=1;arcSize=24;fillColor=#ffffc0;strokeColor=#ff0000;shadow=0;comic=0;labelBackgroundColor=none;fontFamily=Verdana;fontSize=12;fontColor=#000000;align=center;" parent="1" vertex="1">
          <mxGeometry x="390" y="130" width="120" height="60" as="geometry" />
        </mxCell>
        <mxCell id="2a3bc250acf0617d-10" style="edgeStyle=orthogonalEdgeStyle;html=1;labelBackgroundColor=none;endArrow=open;endSize=8;strokeColor=#000000;fontFamily=Verdana;fontSize=12;align=left;exitX=0.5;exitY=0;exitDx=0;exitDy=0;entryX=1;entryY=0.5;entryDx=0;entryDy=0;" parent="1" source="BiViNPcqUaIFcpwJiyQU-11" target="382b91b5511bd0f7-6" edge="1">
          <mxGeometry relative="1" as="geometry">
            <Array as="points">
              <mxPoint x="640" y="160" />
            </Array>
            <mxPoint x="580" y="160" as="targetPoint" />
          </mxGeometry>
        </mxCell>
        <mxCell id="2a3bc250acf0617d-12" style="edgeStyle=orthogonalEdgeStyle;html=1;labelBackgroundColor=none;endArrow=open;endSize=8;strokeColor=#000000;fontFamily=Verdana;fontSize=12;align=left;" parent="1" edge="1">
          <mxGeometry relative="1" as="geometry">
            <mxPoint x="634.7" y="555" as="sourcePoint" />
            <mxPoint x="634.7" y="300" as="targetPoint" />
            <Array as="points">
              <mxPoint x="634.7" y="335" />
            </Array>
          </mxGeometry>
        </mxCell>
        <mxCell id="BiViNPcqUaIFcpwJiyQU-32" style="edgeStyle=orthogonalEdgeStyle;rounded=0;orthogonalLoop=1;jettySize=auto;html=1;exitX=1;exitY=0.5;exitDx=0;exitDy=0;" edge="1" parent="1" source="BiViNPcqUaIFcpwJiyQU-29" target="BiViNPcqUaIFcpwJiyQU-31">
          <mxGeometry relative="1" as="geometry">
            <mxPoint x="880" y="585" as="sourcePoint" />
          </mxGeometry>
        </mxCell>
        <mxCell id="BiViNPcqUaIFcpwJiyQU-5" value="&lt;i&gt;Neúplná trasa&lt;/i&gt;" style="text;html=1;strokeColor=none;fillColor=none;align=center;verticalAlign=middle;whiteSpace=wrap;rounded=0;" vertex="1" parent="1">
          <mxGeometry x="640" y="380" width="60" height="30" as="geometry" />
        </mxCell>
        <mxCell id="BiViNPcqUaIFcpwJiyQU-8" style="edgeStyle=orthogonalEdgeStyle;html=1;labelBackgroundColor=none;endArrow=open;endSize=8;strokeColor=#000000;fontFamily=Verdana;fontSize=12;align=left;exitX=0.586;exitY=1.011;exitDx=0;exitDy=0;exitPerimeter=0;entryX=0;entryY=0.5;entryDx=0;entryDy=0;" edge="1" parent="1" source="382b91b5511bd0f7-6" target="382b91b5511bd0f7-5">
          <mxGeometry relative="1" as="geometry">
            <mxPoint x="460" y="200" as="sourcePoint" />
            <mxPoint x="580" y="590" as="targetPoint" />
            <Array as="points">
              <mxPoint x="460" y="585" />
            </Array>
          </mxGeometry>
        </mxCell>
        <mxCell id="BiViNPcqUaIFcpwJiyQU-9" value="&lt;i&gt;Město vloženo na zásobník&lt;/i&gt;" style="text;html=1;strokeColor=none;fillColor=none;align=center;verticalAlign=middle;whiteSpace=wrap;rounded=0;" vertex="1" parent="1">
          <mxGeometry x="460" y="390" width="60" height="30" as="geometry" />
        </mxCell>
        <mxCell id="BiViNPcqUaIFcpwJiyQU-11" value="Najdi nejbližšího souseda" style="rounded=1;whiteSpace=wrap;html=1;arcSize=24;fillColor=#ffffc0;strokeColor=#ff0000;shadow=0;comic=0;labelBackgroundColor=none;fontFamily=Verdana;fontSize=12;fontColor=#000000;align=center;" vertex="1" parent="1">
          <mxGeometry x="580" y="240" width="120" height="60" as="geometry" />
        </mxCell>
        <mxCell id="BiViNPcqUaIFcpwJiyQU-12" value="&lt;i&gt;Trasa nalezena&lt;/i&gt;" style="text;html=1;strokeColor=none;fillColor=none;align=center;verticalAlign=middle;whiteSpace=wrap;rounded=0;" vertex="1" parent="1">
          <mxGeometry x="840" y="555" width="60" height="30" as="geometry" />
        </mxCell>
        <mxCell id="BiViNPcqUaIFcpwJiyQU-13" value="&lt;i&gt;Vybrán soused&lt;/i&gt;" style="text;html=1;strokeColor=none;fillColor=none;align=center;verticalAlign=middle;whiteSpace=wrap;rounded=0;" vertex="1" parent="1">
          <mxGeometry x="640" y="160" width="60" height="30" as="geometry" />
        </mxCell>
        <mxCell id="BiViNPcqUaIFcpwJiyQU-20" value="Vložení koncového místa" style="rounded=1;whiteSpace=wrap;html=1;arcSize=24;fillColor=#ffffc0;strokeColor=#ff0000;shadow=0;comic=0;labelBackgroundColor=none;fontFamily=Verdana;fontSize=12;fontColor=#000000;align=center;" vertex="1" parent="1">
          <mxGeometry x="590" y="695" width="90" height="60" as="geometry" />
        </mxCell>
        <mxCell id="BiViNPcqUaIFcpwJiyQU-29" value="" style="rhombus;whiteSpace=wrap;html=1;" vertex="1" parent="1">
          <mxGeometry x="740" y="545" width="80" height="80" as="geometry" />
        </mxCell>
        <mxCell id="BiViNPcqUaIFcpwJiyQU-31" value="" style="ellipse;html=1;shape=endState;fillColor=#000000;strokeColor=#ff0000;" vertex="1" parent="1">
          <mxGeometry x="935" y="570" width="30" height="30" as="geometry" />
        </mxCell>
        <mxCell id="BiViNPcqUaIFcpwJiyQU-33" value="&lt;i&gt;Chybí koncové místo&lt;/i&gt;" style="text;html=1;strokeColor=none;fillColor=none;align=center;verticalAlign=middle;whiteSpace=wrap;rounded=0;" vertex="1" parent="1">
          <mxGeometry x="630" y="640" width="60" height="30" as="geometry" />
        </mxCell>
        <mxCell id="BiViNPcqUaIFcpwJiyQU-34" value="&lt;i&gt;počátek = konec&lt;/i&gt;" style="text;html=1;strokeColor=none;fillColor=none;align=center;verticalAlign=middle;whiteSpace=wrap;rounded=0;" vertex="1" parent="1">
          <mxGeometry x="680" y="555" width="60" height="30" as="geometry" />
        </mxCell>
        <mxCell id="BiViNPcqUaIFcpwJiyQU-41" value="" style="edgeStyle=orthogonalEdgeStyle;rounded=0;orthogonalLoop=1;jettySize=auto;html=1;strokeColor=#000000;" edge="1" parent="1" source="BiViNPcqUaIFcpwJiyQU-37" target="BiViNPcqUaIFcpwJiyQU-40">
          <mxGeometry relative="1" as="geometry" />
        </mxCell>
        <mxCell id="BiViNPcqUaIFcpwJiyQU-44" style="edgeStyle=orthogonalEdgeStyle;rounded=0;orthogonalLoop=1;jettySize=auto;html=1;strokeColor=#000000;" edge="1" parent="1" source="BiViNPcqUaIFcpwJiyQU-37" target="BiViNPcqUaIFcpwJiyQU-42">
          <mxGeometry relative="1" as="geometry" />
        </mxCell>
        <mxCell id="BiViNPcqUaIFcpwJiyQU-37" value="Zkontroluj koncové místo" style="rounded=1;whiteSpace=wrap;html=1;arcSize=24;fillColor=#ffffc0;strokeColor=#ff0000;shadow=0;comic=0;labelBackgroundColor=none;fontFamily=Verdana;fontSize=12;fontColor=#000000;align=center;" vertex="1" parent="1">
          <mxGeometry x="20" y="130" width="120" height="60" as="geometry" />
        </mxCell>
        <mxCell id="BiViNPcqUaIFcpwJiyQU-45" style="edgeStyle=orthogonalEdgeStyle;rounded=0;orthogonalLoop=1;jettySize=auto;html=1;entryX=0.5;entryY=1;entryDx=0;entryDy=0;strokeColor=#000000;" edge="1" parent="1" source="BiViNPcqUaIFcpwJiyQU-40" target="BiViNPcqUaIFcpwJiyQU-42">
          <mxGeometry relative="1" as="geometry" />
        </mxCell>
        <mxCell id="BiViNPcqUaIFcpwJiyQU-40" value="Odeber koncové místo" style="rounded=1;whiteSpace=wrap;html=1;arcSize=24;fillColor=#ffffc0;strokeColor=#ff0000;shadow=0;comic=0;labelBackgroundColor=none;fontFamily=Verdana;fontSize=12;fontColor=#000000;align=center;" vertex="1" parent="1">
          <mxGeometry x="20" y="260" width="120" height="60" as="geometry" />
        </mxCell>
        <mxCell id="BiViNPcqUaIFcpwJiyQU-43" style="edgeStyle=orthogonalEdgeStyle;rounded=0;orthogonalLoop=1;jettySize=auto;html=1;entryX=-0.03;entryY=0.493;entryDx=0;entryDy=0;entryPerimeter=0;strokeColor=#000000;" edge="1" parent="1" source="BiViNPcqUaIFcpwJiyQU-42" target="382b91b5511bd0f7-6">
          <mxGeometry relative="1" as="geometry" />
        </mxCell>
        <mxCell id="BiViNPcqUaIFcpwJiyQU-42" value="" style="rhombus;whiteSpace=wrap;html=1;" vertex="1" parent="1">
          <mxGeometry x="240" y="120" width="80" height="80" as="geometry" />
        </mxCell>
        <mxCell id="BiViNPcqUaIFcpwJiyQU-48" value="&lt;i&gt;Koncové místo odebráno&lt;/i&gt;" style="text;html=1;strokeColor=none;fillColor=none;align=center;verticalAlign=middle;whiteSpace=wrap;rounded=0;" vertex="1" parent="1">
          <mxGeometry x="180" y="250" width="60" height="30" as="geometry" />
        </mxCell>
        <mxCell id="BiViNPcqUaIFcpwJiyQU-49" value="&lt;i&gt;Shodné koncové místo s počátečním&amp;nbsp;&lt;/i&gt;" style="text;html=1;strokeColor=none;fillColor=none;align=center;verticalAlign=middle;whiteSpace=wrap;rounded=0;" vertex="1" parent="1">
          <mxGeometry x="160" y="110" width="60" height="30" as="geometry" />
        </mxCell>
        <mxCell id="BiViNPcqUaIFcpwJiyQU-50" value="&lt;i&gt;Koncové místo se nerovná počátečnímu&amp;nbsp;&lt;/i&gt;" style="text;html=1;strokeColor=none;fillColor=none;align=center;verticalAlign=middle;whiteSpace=wrap;rounded=0;" vertex="1" parent="1">
          <mxGeometry x="80" y="210" width="60" height="30" as="geometry" />
        </mxCell>
      </root>
    </mxGraphModel>
  </diagram>
</mxfile>
